<svg xmlns="http://www.w3.org/2000/svg" viewBox="0 0 800 460" font-family="DM Sans, Arial, sans-serif">
<rect width="800" height="460" fill="#ffffff"/>
<text x="40" y="46" font-size="23" font-weight="700" fill="#1a2e22">How Fast Do Microgreens Grow?</text>
<text x="40" y="72" font-size="14" fill="#5b6b62">Approximate days from seed to harvest</text>
<defs><linearGradient id="g_harvest-timeline_0" x1="0" y1="1" x2="0" y2="0"><stop offset="0" stop-color="#6fbf95"/><stop offset="1" stop-color="#2F9160"/></linearGradient><linearGradient id="g_harvest-timeline_1" x1="0" y1="1" x2="0" y2="0"><stop offset="0" stop-color="#7bbf9a"/><stop offset="1" stop-color="#3aa372"/></linearGradient><linearGradient id="g_harvest-timeline_2" x1="0" y1="1" x2="0" y2="0"><stop offset="0" stop-color="#7bbf9a"/><stop offset="1" stop-color="#2F9160"/></linearGradient><linearGradient id="g_harvest-timeline_3" x1="0" y1="1" x2="0" y2="0"><stop offset="0" stop-color="#7bbf9a"/><stop offset="1" stop-color="#3aa372"/></linearGradient></defs>
<line x1="220" y1="400" x2="760" y2="400" stroke="#d8e0db" stroke-width="2"/>
<line x1="220" y1="400.0" x2="760" y2="400.0" stroke="#eef2f0"/><text x="206" y="404.0" text-anchor="end" font-size="12" fill="#9aa8a0">0 d</text><line x1="220" y1="323.0" x2="760" y2="323.0" stroke="#eef2f0"/><text x="206" y="327.0" text-anchor="end" font-size="12" fill="#9aa8a0">3.5 d</text><line x1="220" y1="246.0" x2="760" y2="246.0" stroke="#eef2f0"/><text x="206" y="250.0" text-anchor="end" font-size="12" fill="#9aa8a0">7 d</text><line x1="220" y1="169.0" x2="760" y2="169.0" stroke="#eef2f0"/><text x="206" y="173.0" text-anchor="end" font-size="12" fill="#9aa8a0">10.5 d</text><line x1="220" y1="92.0" x2="760" y2="92.0" stroke="#eef2f0"/><text x="206" y="96.0" text-anchor="end" font-size="12" fill="#9aa8a0">14 d</text><rect x="245.7" y="268.0" width="83.7" height="132.0" rx="6" fill="url(#g_harvest-timeline_0)"/><text x="287.5" y="256.0" text-anchor="middle" font-size="16" font-weight="700" fill="#2F9160">5–7d</text><text x="287.5" y="424" text-anchor="middle" font-size="13" font-weight="600" fill="#3a4a42">Radish</text><rect x="380.6" y="202.0" width="83.7" height="198.0" rx="6" fill="url(#g_harvest-timeline_1)"/><text x="422.5" y="190.0" text-anchor="middle" font-size="16" font-weight="700" fill="#3aa372">7–10d</text><text x="422.5" y="424" text-anchor="middle" font-size="13" font-weight="600" fill="#3a4a42">Broccoli</text><rect x="515.6" y="180.0" width="83.7" height="220.0" rx="6" fill="url(#g_harvest-timeline_2)"/><text x="557.5" y="168.0" text-anchor="middle" font-size="16" font-weight="700" fill="#2F9160">8–12d</text><text x="557.5" y="424" text-anchor="middle" font-size="13" font-weight="600" fill="#3a4a42">Pea shoots</text><rect x="650.6" y="180.0" width="83.7" height="220.0" rx="6" fill="url(#g_harvest-timeline_3)"/><text x="692.5" y="168.0" text-anchor="middle" font-size="16" font-weight="700" fill="#3aa372">8–12d</text><text x="692.5" y="424" text-anchor="middle" font-size="13" font-weight="600" fill="#3a4a42">Sunflower</text>
<text x="40" y="455" font-size="11" fill="#9aa8a0">Typical ranges; varies by variety and conditions.</text>
</svg>