<svg xmlns="http://www.w3.org/2000/svg" viewBox="0 0 800 460" font-family="DM Sans, Arial, sans-serif">
<rect width="800" height="460" fill="#ffffff"/>
<text x="40" y="46" font-size="23" font-weight="700" fill="#1a2e22">LDL Cholesterol in the Red Cabbage Microgreen Study</text>
<text x="40" y="72" font-size="14" fill="#5b6b62">Relative LDL vs control — animal (mouse) study</text>
<defs><linearGradient id="g_ldl-red-cabbage_0" x1="0" y1="1" x2="0" y2="0"><stop offset="0" stop-color="#b9c4be"/><stop offset="1" stop-color="#8a9890"/></linearGradient><linearGradient id="g_ldl-red-cabbage_1" x1="0" y1="1" x2="0" y2="0"><stop offset="0" stop-color="#6fbf95"/><stop offset="1" stop-color="#2F9160"/></linearGradient></defs>
<line x1="220" y1="400" x2="760" y2="400" stroke="#d8e0db" stroke-width="2"/>
<line x1="220" y1="400.0" x2="760" y2="400.0" stroke="#eef2f0"/><text x="206" y="404.0" text-anchor="end" font-size="12" fill="#9aa8a0">0%</text><line x1="220" y1="323.0" x2="760" y2="323.0" stroke="#eef2f0"/><text x="206" y="327.0" text-anchor="end" font-size="12" fill="#9aa8a0">27.5%</text><line x1="220" y1="246.0" x2="760" y2="246.0" stroke="#eef2f0"/><text x="206" y="250.0" text-anchor="end" font-size="12" fill="#9aa8a0">55%</text><line x1="220" y1="169.0" x2="760" y2="169.0" stroke="#eef2f0"/><text x="206" y="173.0" text-anchor="end" font-size="12" fill="#9aa8a0">82.5%</text><line x1="220" y1="92.0" x2="760" y2="92.0" stroke="#eef2f0"/><text x="206" y="96.0" text-anchor="end" font-size="12" fill="#9aa8a0">110%</text><rect x="290.0" y="120.0" width="130.0" height="280.0" rx="6" fill="url(#g_ldl-red-cabbage_0)"/><text x="355.0" y="108.0" text-anchor="middle" font-size="16" font-weight="700" fill="#8a9890">100%</text><text x="355.0" y="424" text-anchor="middle" font-size="13" font-weight="600" fill="#3a4a42">Control diet</text><rect x="560.0" y="215.2" width="130.0" height="184.8" rx="6" fill="url(#g_ldl-red-cabbage_1)"/><text x="625.0" y="203.2" text-anchor="middle" font-size="16" font-weight="700" fill="#2F9160">−34%</text><text x="625.0" y="424" text-anchor="middle" font-size="13" font-weight="600" fill="#3a4a42">Red cabbage microgreens</text><text x="625.0" y="442" text-anchor="middle" font-size="11" fill="#9aa8a0">lower LDL</text>
<text x="40" y="455" font-size="11" fill="#9aa8a0">Animal (mouse) study associated with the USDA. Not a human clinical trial.</text>
</svg>