<svg xmlns="http://www.w3.org/2000/svg" viewBox="0 0 800 460" font-family="DM Sans, Arial, sans-serif">
<rect width="800" height="460" fill="#ffffff"/>
<text x="40" y="46" font-size="23" font-weight="700" fill="#1a2e22">Protein in Popular Microgreens</text>
<text x="40" y="72" font-size="14" fill="#5b6b62">Approximate protein content (% by weight)</text>
<defs><linearGradient id="g_protein-microgreens_0" x1="0" y1="1" x2="0" y2="0"><stop offset="0" stop-color="#6fbf95"/><stop offset="1" stop-color="#2F9160"/></linearGradient><linearGradient id="g_protein-microgreens_1" x1="0" y1="1" x2="0" y2="0"><stop offset="0" stop-color="#7bbf9a"/><stop offset="1" stop-color="#3aa372"/></linearGradient><linearGradient id="g_protein-microgreens_2" x1="0" y1="1" x2="0" y2="0"><stop offset="0" stop-color="#7bbf9a"/><stop offset="1" stop-color="#2F9160"/></linearGradient></defs>
<line x1="220" y1="400" x2="760" y2="400" stroke="#d8e0db" stroke-width="2"/>
<line x1="220" y1="400.0" x2="760" y2="400.0" stroke="#eef2f0"/><text x="206" y="404.0" text-anchor="end" font-size="12" fill="#9aa8a0">0%</text><line x1="220" y1="323.0" x2="760" y2="323.0" stroke="#eef2f0"/><text x="206" y="327.0" text-anchor="end" font-size="12" fill="#9aa8a0">10%</text><line x1="220" y1="246.0" x2="760" y2="246.0" stroke="#eef2f0"/><text x="206" y="250.0" text-anchor="end" font-size="12" fill="#9aa8a0">20%</text><line x1="220" y1="169.0" x2="760" y2="169.0" stroke="#eef2f0"/><text x="206" y="173.0" text-anchor="end" font-size="12" fill="#9aa8a0">30%</text><line x1="220" y1="92.0" x2="760" y2="92.0" stroke="#eef2f0"/><text x="206" y="96.0" text-anchor="end" font-size="12" fill="#9aa8a0">40%</text><rect x="254.2" y="130.5" width="111.6" height="269.5" rx="6" fill="url(#g_protein-microgreens_0)"/><text x="310.0" y="118.5" text-anchor="middle" font-size="16" font-weight="700" fill="#2F9160">~35%</text><text x="310.0" y="424" text-anchor="middle" font-size="13" font-weight="600" fill="#3a4a42">Pea shoots</text><rect x="434.2" y="207.5" width="111.6" height="192.5" rx="6" fill="url(#g_protein-microgreens_1)"/><text x="490.0" y="195.5" text-anchor="middle" font-size="16" font-weight="700" fill="#3aa372">~25%</text><text x="490.0" y="424" text-anchor="middle" font-size="13" font-weight="600" fill="#3a4a42">Sunflower</text><rect x="614.2" y="230.6" width="111.6" height="169.4" rx="6" fill="url(#g_protein-microgreens_2)"/><text x="670.0" y="218.6" text-anchor="middle" font-size="16" font-weight="700" fill="#2F9160">~22%</text><text x="670.0" y="424" text-anchor="middle" font-size="13" font-weight="600" fill="#3a4a42">Broccoli</text>
<text x="40" y="455" font-size="11" fill="#9aa8a0">Illustrative. Pea shoots are among the highest-protein microgreens (up to ~35%).</text>
</svg>